<svg xmlns="http://www.w3.org/2000/svg" viewBox="0 0 680 850">
  <rect width="680" height="850" rx="36" fill="#f2fbef"/>
  <rect x="42" y="42" width="596" height="766" rx="28" fill="#fff" stroke="#a7d47a" stroke-width="5"/>
  <text x="340" y="112" text-anchor="middle" font-family="Arial, sans-serif" font-size="39" font-weight="900" fill="#7a2e1f">Bolo de Milho Sem Glúten</text>
  <text x="340" y="154" text-anchor="middle" font-family="Arial, sans-serif" font-size="22" font-weight="700" fill="#168a4a">fofinho, simples e vendável</text>
  <ellipse cx="340" cy="522" rx="194" ry="58" fill="#d9b173"/>
  <path d="M160 310h360v196c0 48-360 48-360 0z" fill="#f7b32b" stroke="#7a2e1f" stroke-width="8"/>
  <path d="M160 310c0-56 360-56 360 0 0 56-360 56-360 0z" fill="#ffe08a" stroke="#7a2e1f" stroke-width="8"/>
  <path d="M222 310c22 24 48 25 74 0m66 0c22 24 48 25 74 0" fill="none" stroke="#fff4bd" stroke-width="14" stroke-linecap="round"/>
  <g font-family="Arial, sans-serif" font-size="24" fill="#4a3326">
    <text x="112" y="620">✓ massa prática de liquidificador</text>
    <text x="112" y="668">✓ opção sem farinha de trigo</text>
    <text x="112" y="716">✓ ideia de venda: fatias embaladas</text>
  </g>
</svg>
